<mxfile host="app.diagrams.net" modified="2023-06-11T23:43:47.015Z" agent="Mozilla/5.0 (X11; Linux x86_64; rv:102.0) Gecko/20100101 Firefox/102.0" etag="gtRPybImO9k1rXJRAjdF" version="21.2.3" type="device">
  <diagram name="Page-1" id="UmiWTSC5wWP8ugJTsHOZ">
    <mxGraphModel dx="819" dy="454" grid="1" gridSize="10" guides="1" tooltips="1" connect="1" arrows="1" fold="1" page="1" pageScale="1" pageWidth="827" pageHeight="1169" math="0" shadow="0">
      <root>
        <mxCell id="0" />
        <mxCell id="1" parent="0" />
        <mxCell id="FHLjFzFh86YU1NFtjN-G-1" value="" style="rounded=0;whiteSpace=wrap;html=1;" parent="1" vertex="1">
          <mxGeometry x="160" y="200" width="20" height="220" as="geometry" />
        </mxCell>
        <mxCell id="FHLjFzFh86YU1NFtjN-G-3" value="&lt;div&gt;RISC-V&lt;/div&gt;&lt;div&gt;Core&lt;br&gt;&lt;/div&gt;" style="whiteSpace=wrap;html=1;aspect=fixed;" parent="1" vertex="1">
          <mxGeometry x="40" y="200" width="80" height="80" as="geometry" />
        </mxCell>
        <mxCell id="FHLjFzFh86YU1NFtjN-G-4" value="&lt;div&gt;Memory&lt;/div&gt;&lt;div&gt;Aligner&lt;br&gt;&lt;/div&gt;" style="whiteSpace=wrap;html=1;aspect=fixed;" parent="1" vertex="1">
          <mxGeometry x="40" y="340" width="80" height="80" as="geometry" />
        </mxCell>
        <mxCell id="FHLjFzFh86YU1NFtjN-G-5" value="&lt;div&gt;Crossbar&lt;/div&gt;" style="text;html=1;align=center;verticalAlign=middle;resizable=0;points=[];autosize=1;strokeColor=none;fillColor=none;rotation=-90;" parent="1" vertex="1">
          <mxGeometry x="135" y="295" width="70" height="30" as="geometry" />
        </mxCell>
        <mxCell id="FHLjFzFh86YU1NFtjN-G-7" value="ROM" style="rounded=0;whiteSpace=wrap;html=1;" parent="1" vertex="1">
          <mxGeometry x="220" y="200" width="80" height="40" as="geometry" />
        </mxCell>
        <mxCell id="FHLjFzFh86YU1NFtjN-G-8" value="RAM" style="rounded=0;whiteSpace=wrap;html=1;" parent="1" vertex="1">
          <mxGeometry x="220" y="260" width="80" height="40" as="geometry" />
        </mxCell>
        <mxCell id="FHLjFzFh86YU1NFtjN-G-9" value="GPU" style="rounded=0;whiteSpace=wrap;html=1;" parent="1" vertex="1">
          <mxGeometry x="220" y="320" width="80" height="40" as="geometry" />
        </mxCell>
        <mxCell id="FHLjFzFh86YU1NFtjN-G-10" value="" style="rounded=0;whiteSpace=wrap;html=1;" parent="1" vertex="1">
          <mxGeometry x="340" y="200" width="20" height="220" as="geometry" />
        </mxCell>
        <mxCell id="FHLjFzFh86YU1NFtjN-G-11" value="Interconnect" style="text;html=1;align=center;verticalAlign=middle;resizable=0;points=[];autosize=1;strokeColor=none;fillColor=none;rotation=-90;" parent="1" vertex="1">
          <mxGeometry x="305" y="295" width="90" height="30" as="geometry" />
        </mxCell>
        <mxCell id="FHLjFzFh86YU1NFtjN-G-12" value="GPIO" style="rounded=0;whiteSpace=wrap;html=1;" parent="1" vertex="1">
          <mxGeometry x="400" y="200" width="80" height="40" as="geometry" />
        </mxCell>
        <mxCell id="FHLjFzFh86YU1NFtjN-G-13" value="UART" style="rounded=0;whiteSpace=wrap;html=1;" parent="1" vertex="1">
          <mxGeometry x="400" y="265" width="80" height="40" as="geometry" />
        </mxCell>
        <mxCell id="eUnBRWrhTFO_GOYDaMK3-3" value="" style="shape=flexArrow;endArrow=classic;startArrow=classic;html=1;rounded=0;labelBackgroundColor=default;strokeColor=default;fontFamily=Helvetica;fontSize=11;fontColor=default;startSize=3;endSize=3;startWidth=10;endWidth=10;exitX=0.5;exitY=0;exitDx=0;exitDy=0;" edge="1" parent="1" source="FHLjFzFh86YU1NFtjN-G-4">
          <mxGeometry width="100" height="100" relative="1" as="geometry">
            <mxPoint x="79.80000000000001" y="320" as="sourcePoint" />
            <mxPoint x="79.80000000000001" y="280" as="targetPoint" />
          </mxGeometry>
        </mxCell>
        <mxCell id="eUnBRWrhTFO_GOYDaMK3-4" value="" style="shape=flexArrow;endArrow=classic;startArrow=classic;html=1;rounded=0;labelBackgroundColor=default;strokeColor=default;fontFamily=Helvetica;fontSize=11;fontColor=default;startSize=3;endSize=3;startWidth=10;endWidth=10;entryX=1;entryY=0.5;entryDx=0;entryDy=0;exitX=0;exitY=0.818;exitDx=0;exitDy=0;exitPerimeter=0;" edge="1" parent="1" source="FHLjFzFh86YU1NFtjN-G-1" target="FHLjFzFh86YU1NFtjN-G-4">
          <mxGeometry width="100" height="100" relative="1" as="geometry">
            <mxPoint x="150" y="380" as="sourcePoint" />
            <mxPoint x="150" y="160" as="targetPoint" />
          </mxGeometry>
        </mxCell>
        <mxCell id="eUnBRWrhTFO_GOYDaMK3-5" value="" style="shape=flexArrow;endArrow=classic;startArrow=classic;html=1;rounded=0;labelBackgroundColor=default;strokeColor=default;fontFamily=Helvetica;fontSize=11;fontColor=default;startSize=3;endSize=3;startWidth=10;endWidth=10;entryX=1;entryY=0.091;entryDx=0;entryDy=0;entryPerimeter=0;" edge="1" parent="1" target="FHLjFzFh86YU1NFtjN-G-1">
          <mxGeometry width="100" height="100" relative="1" as="geometry">
            <mxPoint x="220" y="220" as="sourcePoint" />
            <mxPoint x="280" y="180" as="targetPoint" />
          </mxGeometry>
        </mxCell>
        <mxCell id="eUnBRWrhTFO_GOYDaMK3-7" value="" style="shape=flexArrow;endArrow=classic;startArrow=classic;html=1;rounded=0;labelBackgroundColor=default;strokeColor=default;fontFamily=Helvetica;fontSize=11;fontColor=default;startSize=3;endSize=3;startWidth=10;endWidth=10;entryX=1;entryY=0.091;entryDx=0;entryDy=0;entryPerimeter=0;" edge="1" parent="1">
          <mxGeometry width="100" height="100" relative="1" as="geometry">
            <mxPoint x="220" y="279.83" as="sourcePoint" />
            <mxPoint x="180" y="279.83" as="targetPoint" />
          </mxGeometry>
        </mxCell>
        <mxCell id="eUnBRWrhTFO_GOYDaMK3-8" value="" style="shape=flexArrow;endArrow=classic;startArrow=classic;html=1;rounded=0;labelBackgroundColor=default;strokeColor=default;fontFamily=Helvetica;fontSize=11;fontColor=default;startSize=3;endSize=3;startWidth=10;endWidth=10;entryX=1;entryY=0.091;entryDx=0;entryDy=0;entryPerimeter=0;" edge="1" parent="1">
          <mxGeometry width="100" height="100" relative="1" as="geometry">
            <mxPoint x="220" y="340" as="sourcePoint" />
            <mxPoint x="180" y="340" as="targetPoint" />
          </mxGeometry>
        </mxCell>
        <mxCell id="eUnBRWrhTFO_GOYDaMK3-9" value="" style="shape=flexArrow;endArrow=classic;startArrow=classic;html=1;rounded=0;labelBackgroundColor=default;strokeColor=default;fontFamily=Helvetica;fontSize=11;fontColor=default;startSize=3;endSize=3;startWidth=10;endWidth=10;entryX=1;entryY=0.091;entryDx=0;entryDy=0;entryPerimeter=0;exitX=0;exitY=0.909;exitDx=0;exitDy=0;exitPerimeter=0;" edge="1" parent="1" source="FHLjFzFh86YU1NFtjN-G-10">
          <mxGeometry width="100" height="100" relative="1" as="geometry">
            <mxPoint x="220" y="399.83000000000004" as="sourcePoint" />
            <mxPoint x="180" y="399.83000000000004" as="targetPoint" />
          </mxGeometry>
        </mxCell>
        <mxCell id="eUnBRWrhTFO_GOYDaMK3-10" value="" style="shape=flexArrow;endArrow=classic;startArrow=classic;html=1;rounded=0;labelBackgroundColor=default;strokeColor=default;fontFamily=Helvetica;fontSize=11;fontColor=default;startSize=3;endSize=3;startWidth=10;endWidth=10;entryX=1;entryY=0.091;entryDx=0;entryDy=0;entryPerimeter=0;" edge="1" parent="1">
          <mxGeometry width="100" height="100" relative="1" as="geometry">
            <mxPoint x="400" y="219.86" as="sourcePoint" />
            <mxPoint x="360" y="219.86" as="targetPoint" />
          </mxGeometry>
        </mxCell>
        <mxCell id="eUnBRWrhTFO_GOYDaMK3-11" value="" style="shape=flexArrow;endArrow=classic;startArrow=classic;html=1;rounded=0;labelBackgroundColor=default;strokeColor=default;fontFamily=Helvetica;fontSize=11;fontColor=default;startSize=3;endSize=3;startWidth=10;endWidth=10;entryX=1;entryY=0.091;entryDx=0;entryDy=0;entryPerimeter=0;" edge="1" parent="1">
          <mxGeometry width="100" height="100" relative="1" as="geometry">
            <mxPoint x="400" y="284.86" as="sourcePoint" />
            <mxPoint x="360" y="284.86" as="targetPoint" />
          </mxGeometry>
        </mxCell>
      </root>
    </mxGraphModel>
  </diagram>
</mxfile>
